<?xml version="1.0" standalone="no"?>
<!DOCTYPE svg PUBLIC "-//W3C//DTD SVG 20010904//EN"
 "http://www.w3.org/TR/2001/REC-SVG-20010904/DTD/svg10.dtd">
<svg version="1.0" xmlns="http://www.w3.org/2000/svg"
 width="645.000000pt" height="645.000000pt" viewBox="0 0 645.000000 645.000000"
 preserveAspectRatio="xMidYMid meet">
<metadata>
Created by potrace 1.11, written by Peter Selinger 2001-2013
</metadata>
<g transform="translate(0.000000,645.000000) scale(0.100000,-0.100000)"
fill="#000000" stroke="none">
<path d="M3187 6445 c-1 -1 -63 -5 -137 -9 -74 -3 -146 -8 -160 -10 -14 -3
-52 -8 -85 -11 -33 -3 -127 -19 -210 -36 -702 -140 -1329 -505 -1801 -1049
-21 -25 -42 -47 -45 -50 -17 -15 -172 -227 -220 -300 -240 -369 -422 -839
-479 -1235 -6 -44 -13 -89 -15 -101 -3 -22 -14 -122 -20 -194 -11 -121 -5
-440 10 -565 2 -22 7 -62 10 -90 3 -27 11 -74 16 -103 6 -29 12 -65 14 -80 2
-15 13 -67 25 -117 108 -462 322 -906 610 -1269 98 -123 294 -329 415 -436 60
-54 240 -190 326 -248 355 -237 805 -420 1199 -487 19 -3 42 -8 50 -10 8 -2
38 -7 66 -10 28 -3 61 -8 75 -10 129 -26 670 -25 794 0 11 2 40 7 65 10 25 3
56 7 70 10 14 3 41 8 60 11 63 10 245 53 288 68 23 8 42 14 42 12 0 -2 56 16
126 40 477 166 887 425 1244 785 192 193 357 410 512 674 38 65 157 309 177
365 8 19 19 49 26 65 65 152 158 510 180 690 4 28 8 61 11 75 25 147 24 600
-1 785 -2 17 -7 55 -10 85 -3 30 -8 63 -11 72 -5 17 -11 43 -19 90 -55 301
-202 687 -368 971 -29 48 -57 95 -62 105 -21 36 -101 150 -162 231 -93 123
-161 201 -302 341 -405 404 -902 687 -1461 831 -202 53 -416 86 -614 95 -66 3
-145 7 -174 8 -29 1 -53 2 -55 1z"/>
</g>
</svg>
